<svg height="512pt" viewBox="0 0 512 512" width="512pt" xmlns="http://www.w3.org/2000/svg"><path d="m213.8125 236.613281c-21.167969 0-38.386719 17.210938-38.386719 38.363281 0 21.15625 17.21875 38.367188 38.386719 38.367188s38.390625-17.210938 38.390625-38.367188c0-21.152343-17.222656-38.363281-38.390625-38.363281zm0 46.730469c-4.625 0-8.386719-3.753906-8.386719-8.367188 0-4.613281 3.761719-8.363281 8.386719-8.363281s8.390625 3.75 8.390625 8.363281c0 4.613282-3.765625 8.367188-8.390625 8.367188zm0 0"/><path d="m304.628906 274.976562c0-50.066406-40.738281-90.796874-90.816406-90.796874-50.074219 0-90.816406 40.730468-90.816406 90.796874 0 50.070313 40.742187 90.800782 90.816406 90.800782 50.078125 0 90.816406-40.730469 90.816406-90.800782zm-90.816406 60.800782c-33.535156 0-60.816406-27.273438-60.816406-60.800782 0-33.523437 27.28125-60.796874 60.816406-60.796874s60.816406 27.273437 60.816406 60.796874c0 33.527344-27.28125 60.800782-60.816406 60.800782zm0 0"/><path d="m427.625 281.945312v-139.816406c0-3.980468-1.578125-7.792968-4.394531-10.605468l-127.125-127.128907c-2.816407-2.8125-6.628907-4.394531-10.609375-4.394531h-249.050782c-20.09375 0-36.445312 16.351562-36.445312 36.449219v354.636719c0 20.097656 16.351562 36.445312 36.445312 36.445312h245.441407c14.273437 48.746094 59.390625 84.449219 112.699219 84.449219 64.742187 0 117.414062-52.660157 117.414062-117.386719 0-53.261719-35.667969-98.347656-84.375-112.648438zm-233.34375-251.945312v50.097656c0 8.285156 6.714844 15 15 15s15-6.714844 15-15v-50.097656h25.507812v76.320312h-143.972656v-76.320312zm-157.835938 367.53125c-3.554687 0-6.445312-2.890625-6.445312-6.445312v-354.636719c0-3.554688 2.894531-6.449219 6.445312-6.449219h39.371094v91.320312c0 8.285157 6.714844 15 15 15h173.972656c8.285157 0 15-6.714843 15-15v-90.8125l117.835938 117.835938v128.898438c-1.007812-.023438-2.023438-.039063-3.039062-.039063-64.738282 0-117.410157 52.660156-117.410157 117.390625 0 .984375.011719 1.960938.035157 2.9375zm358.140626 84.449219c-48.199219 0-87.410157-39.203125-87.410157-87.386719 0-48.1875 39.210938-87.390625 87.410157-87.390625 48.199218 0 87.414062 39.203125 87.414062 87.390625 0 48.183594-39.214844 87.386719-87.414062 87.386719zm0 0"/><path d="m331.785156 411.261719c-2.519531 9.128906-5.449218 19.519531-6.269531 22.105469-2.070313 5.128906-1.21875 11.214843 2.714844 15.621093 2.964843 3.320313 7.070312 5.015625 11.195312 5.015625 3.554688 0 7.121094-1.257812 9.980469-3.808594 1.132812-1.011718 1.914062-1.710937 2.683594-3.019531 12.25 9.984375 27.695312 15.523438 43.582031 15.523438 9.0625 0 18.265625-1.800781 27.101563-5.605469 12.859374-5.542969 23.582031-14.722656 31-26.546875 4.402343-7.019531 2.28125-16.277344-4.734376-20.679687-7.019531-4.402344-16.277343-2.28125-20.679687 4.734374-4.171875 6.648438-10.207031 11.8125-17.457031 14.9375-11.132813 4.796876-23.300782 3.9375-33.289063-1.28125 4.121094-2.621093 6.894531-7.1875 6.972657-12.4375.125-8.28125-6.492188-15.097656-14.773438-15.222656l-23.34375-.347656c-10.835938.003906-13.128906 5.621094-14.683594 11.011719zm0 0"/><path d="m459.425781 376.535156 5.199219-19.894531c2.09375-8.011719-2.703125-16.210937-10.722656-18.304687-5.054688-1.320313-10.179688.105468-13.804688 3.347656-19.292968-16.359375-46.949218-21.457032-71.714844-10.785156-8.964843 3.863281-16.835937 9.445312-23.398437 16.582031-5.601563 6.101562-5.203125 15.589843.898437 21.195312 6.097657 5.605469 15.589844 5.203125 21.195313-.898437 3.683594-4.007813 8.117187-7.144532 13.175781-9.328125 12.566406-5.410157 26.449219-3.617188 37.027344 3.519531-7.304688 1.960938-12.113281 9.15625-10.917969 16.800781 1.15625 7.398438 7.539063 12.683594 14.800781 12.683594.773438 0 1.554688-.058594 2.339844-.179687l23.726563-3.710938c6.554687-1.246094 9.976562-2.542969 12.195312-11.027344zm0 0"/></svg>